<svg xmlns="http://www.w3.org/2000/svg" fill="none" stroke="currentColor" stroke-width="1.8" stroke-linecap="round" stroke-linejoin="round" style="display:none"><symbol id="wallet" viewBox="0 0 24 24"><path d="M19 7V6a2 2 0 0 0-2-2H5a2 2 0 0 0-2 2v12a2 2 0 0 0 2 2h14a2 2 0 0 0 2-2V9a2 2 0 0 0-2-2H4"/><circle cx="16.5" cy="13.5" r="0.9" fill="currentColor" stroke="none"/></symbol><symbol id="connect" viewBox="0 0 24 24"><path d="M9 7V3M15 7V3"/><path d="M7 7h10v4a5 5 0 0 1-5 5 5 5 0 0 1-5-5V7Z"/><path d="M12 16v5"/></symbol><symbol id="send" viewBox="0 0 24 24"><path d="M5 19 19 5"/><path d="M9 5h10v10"/></symbol><symbol id="receive" viewBox="0 0 24 24"><path d="M19 5 5 19"/><path d="M15 19H5V9"/></symbol><symbol id="offer" viewBox="0 0 24 24"><path d="M4 8h13"/><path d="m13.5 4.5 3.5 3.5-3.5 3.5"/><path d="M20 16H7"/><path d="M10.5 12.5 7 16l3.5 3.5"/></symbol><symbol id="sign" viewBox="0 0 24 24"><path d="m4 20 1-4L16.5 4.5a2.12 2.12 0 0 1 3 3L8 19l-4 1Z"/><path d="m13.5 7.5 3 3"/></symbol><symbol id="lock" viewBox="0 0 24 24"><rect x="5" y="11" width="14" height="9" rx="2.5"/><path d="M8 11V8a4 4 0 0 1 8 0v3"/><path d="M12 14.5v2"/></symbol><symbol id="check" viewBox="0 0 24 24"><circle cx="12" cy="12" r="9"/><path d="m8.5 12.5 2.5 2.5 4.5-5"/></symbol><symbol id="alert" viewBox="0 0 24 24"><path d="M10.3 4.8 2.9 17.6a2 2 0 0 0 1.7 3h14.8a2 2 0 0 0 1.7-3L13.7 4.8a2 2 0 0 0-3.4 0Z"/><path d="M12 10v4"/><path d="M12 17.2h.01"/></symbol><symbol id="copy" viewBox="0 0 24 24"><rect x="9" y="9" width="11" height="11" rx="2"/><path d="M5 15h-.5A1.5 1.5 0 0 1 3 13.5v-9A1.5 1.5 0 0 1 4.5 3h9A1.5 1.5 0 0 1 15 4.5V5"/></symbol><symbol id="external" viewBox="0 0 24 24"><path d="M14 4h6v6"/><path d="M20 4 11 13"/><path d="M19 13.5V18a2 2 0 0 1-2 2H6a2 2 0 0 1-2-2V7a2 2 0 0 1 2-2h4.5"/></symbol><symbol id="qr" viewBox="0 0 24 24"><rect x="4" y="4" width="6" height="6" rx="1"/><rect x="14" y="4" width="6" height="6" rx="1"/><rect x="4" y="14" width="6" height="6" rx="1"/><path d="M14 14h2.5v2.5H14Z"/><path d="M17.5 17.5H20V20h-2.5Z"/></symbol><symbol id="token" viewBox="0 0 24 24"><circle cx="12" cy="12" r="8"/><circle cx="12" cy="12" r="3.5"/></symbol><symbol id="nft" viewBox="0 0 24 24"><rect x="4" y="4" width="16" height="16" rx="3"/><circle cx="9.2" cy="9.2" r="1.6"/><path d="m4.5 17 4.3-4.3a1.5 1.5 0 0 1 2.1 0L16 17.8"/><path d="m14 15.5 2-2a1.5 1.5 0 0 1 2.1 0l1.9 1.9"/></symbol><symbol id="site" viewBox="0 0 24 24"><circle cx="12" cy="12" r="9"/><path d="M3 12h18"/><path d="M12 3c2.8 2.6 4 5.6 4 9s-1.2 6.4-4 9c-2.8-2.6-4-5.6-4-9s1.2-6.4 4-9Z"/></symbol><symbol id="close" viewBox="0 0 24 24"><path d="m6 6 12 12"/><path d="M18 6 6 18"/></symbol><symbol id="chevron" viewBox="0 0 24 24"><path d="m9 5 7 7-7 7"/></symbol><symbol id="flower" viewBox="0 0 24 24"><circle cx="12" cy="12" r="2.1"/><ellipse cx="12" cy="6.4" rx="2.5" ry="3.6" transform="rotate(18 12 12)"/><ellipse cx="12" cy="6.4" rx="2.5" ry="3.6" transform="rotate(90 12 12)"/><ellipse cx="12" cy="6.4" rx="2.5" ry="3.6" transform="rotate(162 12 12)"/><ellipse cx="12" cy="6.4" rx="2.5" ry="3.6" transform="rotate(234 12 12)"/><ellipse cx="12" cy="6.4" rx="2.5" ry="3.6" transform="rotate(306 12 12)"/></symbol></svg>
